<?xml version="1.0" encoding="utf-8"?>
<!-- Generator: Adobe Illustrator 16.0.0, SVG Export Plug-In . SVG Version: 6.00 Build 0)  -->
<!DOCTYPE svg PUBLIC "-//W3C//DTD SVG 1.1 Tiny//EN" "http://www.w3.org/Graphics/SVG/1.1/DTD/svg11-tiny.dtd">
<svg version="1.1" baseProfile="tiny" id="Calque_1"
	 xmlns="http://www.w3.org/2000/svg" xmlns:xlink="http://www.w3.org/1999/xlink" x="0px" y="0px" width="180.079px" height="50px"
	 viewBox="0 0 180.079 50" xml:space="preserve">
<g>
	<path fill="#FFFFFF" d="M162.838,34.927V2.286h6.52v32.641H162.838z M172.598,15.326h6.52v19.601h-6.52V15.326z"/>
</g>
<g>
	<path fill="#FFFFFF" d="M17.413,15.806c6.885,0,10.125,3.015,10.125,7.155c0,3.15-1.89,5.895-7.29,6.93
		c6.345,0.81,8.91,3.689,8.91,7.47c0,3.959-3.06,8.279-12.959,8.279H3.643v-2.115l3.78-0.404c0.09-3.78,0.09-7.605,0.09-11.52
		v-1.755c0-3.825,0-7.695-0.09-11.52l-3.78-0.405v-2.115H17.413z M13.363,18.101c-0.09,3.555-0.09,7.245-0.09,10.935h1.845
		c4.635,0,6.705-1.8,6.705-5.669c0-3.735-1.98-5.265-6.075-5.265H13.363z M15.478,43.3c4.995,0,7.605-2.07,7.605-5.939
		c0-4.141-2.43-6.12-7.785-6.12h-2.025c0,4.229,0,8.189,0.09,12.06H15.478z"/>
	<path fill="#FFFFFF" d="M53.997,43.3c-1.035,2.205-2.385,2.88-4.455,2.88c-2.655,0-4.14-1.305-4.635-3.375
		c-2.205,2.25-3.645,3.51-6.524,3.51c-3.375,0-5.985-2.024-5.985-5.76c0-2.835,1.575-5.04,8.055-7.109
		c1.17-0.405,2.745-0.855,4.32-1.26v-1.351c0-4.185-1.035-5.31-3.96-5.31c-0.54,0-1.125,0.045-1.8,0.135l-0.54,2.61
		c-0.27,2.16-1.395,3.149-2.88,3.149c-1.395,0-2.295-0.765-2.52-2.069c0.54-3.601,4.005-6.03,9.495-6.03
		c5.22,0,7.515,2.34,7.515,8.189v9.9c0,1.35,0.405,2.024,1.215,2.024c0.63,0,1.08-0.359,1.44-0.765l0.225-0.226L53.997,43.3z
		 M44.772,33.985c-1.26,0.404-2.43,0.765-3.195,1.08c-3.015,1.215-3.915,2.88-3.915,4.59c0,1.215,0.315,1.89,0.855,2.43
		c0.63,0.675,1.395,0.944,2.34,0.944c1.17,0,1.935-0.494,3.915-1.89V33.985z"/>
	<path fill="#FFFFFF" d="M77.486,34.795c0,7.245-4.814,11.52-10.89,11.52c-6.075,0-10.844-4.319-10.844-11.52
		c0-7.199,5.084-11.475,10.844-11.475C72.402,23.32,77.486,27.551,77.486,34.795z M61.647,34.84c0,6.255,1.755,9.27,4.95,9.27
		c3.24,0,4.995-3.015,4.995-9.27c0-6.21-1.755-9.314-4.995-9.314C63.402,25.525,61.647,28.63,61.647,34.84z"/>
	<path fill="#FFFFFF" d="M88.466,26.516c1.98-2.16,4.23-3.195,6.705-3.195c4.859,0,8.685,4.14,8.685,11.34
		c0,7.064-4.23,11.654-9.405,11.654c-2.385,0-4.365-0.854-6.075-2.97l-0.585,2.925l-7.604-0.63v-1.845l2.97-0.585
		c0.045-2.25,0.045-5.085,0.045-7.02V17.291l-3.285-0.405v-1.755l8.055-2.025l0.675,0.405l-0.18,6.345V26.516z M88.602,41.229
		c1.395,1.306,2.745,1.936,4.229,1.936c2.925,0,5.265-2.7,5.265-8.28c0-5.534-2.07-8.324-5.085-8.324
		c-1.395,0-2.88,0.765-4.41,2.069V41.229z"/>
	<path fill="#FFFFFF" d="M128.695,43.3c-1.034,2.205-2.385,2.88-4.454,2.88c-2.655,0-4.14-1.305-4.635-3.375
		c-2.205,2.25-3.645,3.51-6.525,3.51c-3.375,0-5.985-2.024-5.985-5.76c0-2.835,1.575-5.04,8.055-7.109
		c1.17-0.405,2.745-0.855,4.319-1.26v-1.351c0-4.185-1.034-5.31-3.959-5.31c-0.54,0-1.125,0.045-1.8,0.135l-0.54,2.61
		c-0.27,2.16-1.395,3.149-2.88,3.149c-1.395,0-2.295-0.765-2.52-2.069c0.54-3.601,4.005-6.03,9.494-6.03
		c5.221,0,7.516,2.34,7.516,8.189v9.9c0,1.35,0.404,2.024,1.215,2.024c0.63,0,1.08-0.359,1.439-0.765l0.226-0.226L128.695,43.3z
		 M119.471,33.985c-1.26,0.404-2.43,0.765-3.194,1.08c-3.015,1.215-3.915,2.88-3.915,4.59c0,1.215,0.315,1.89,0.855,2.43
		c0.63,0.675,1.395,0.944,2.34,0.944c1.17,0,1.935-0.494,3.915-1.89V33.985z"/>
	<path fill="#FFFFFF" d="M138.371,26.516c1.979-2.16,4.229-3.195,6.704-3.195c4.86,0,8.685,4.14,8.685,11.34
		c0,7.064-4.229,11.654-9.404,11.654c-2.385,0-4.365-0.854-6.075-2.97l-0.585,2.925l-7.604-0.63v-1.845l2.97-0.585
		c0.046-2.25,0.046-5.085,0.046-7.02V17.291l-3.285-0.405v-1.755l8.055-2.025l0.675,0.405l-0.18,6.345V26.516z M138.506,41.229
		c1.395,1.306,2.745,1.936,4.229,1.936c2.925,0,5.265-2.7,5.265-8.28c0-5.534-2.069-8.324-5.084-8.324
		c-1.396,0-2.88,0.765-4.41,2.069V41.229z"/>
</g>
<g>
</g>
<g>
</g>
<g>
</g>
<g>
</g>
<g>
</g>
<g>
</g>
</svg>
